<?xml version="1.0" encoding="utf-8"?>
<!-- Generator: Adobe Illustrator 24.1.2, SVG Export Plug-In . SVG Version: 6.00 Build 0)  -->
<svg version="1.1" id="Layer_1" xmlns="http://www.w3.org/2000/svg" xmlns:xlink="http://www.w3.org/1999/xlink" x="0px" y="0px"
	 viewBox="0 0 100 100" style="enable-background:new 0 0 100 100;" xml:space="preserve">
<style type="text/css">
	.st0{fill:none;stroke:#000000;stroke-width:2;stroke-miterlimit:10;}
	.st1{fill:none;stroke:#000000;stroke-width:0.8918;stroke-miterlimit:10;}
	.st2{fill:none;}
	.st3{fill-rule:evenodd;clip-rule:evenodd;}
</style>
<g>
	<path class="st0" d="M81.84,50.49v16.34c0,3.37-2.76,6.12-6.12,6.12H26.47c-3.37,0-6.12-2.76-6.12-6.12V50.49"/>
</g>
<path class="st0" d="M45.46,52.89l-27.13-2.4V33.78c0-3.09,2.34-5.6,5.23-5.6h54.5c2.89,0,5.23,2.51,5.23,5.6v16.71l-27.63,2.4"/>
<path class="st0" d="M59.27,28.19H42.91v-2.66c0-2.83,2.29-5.12,5.12-5.12h6.12c2.83,0,5.12,2.29,5.12,5.12V28.19z"/>
<rect x="45.96" y="47.66" class="st1" width="9.71" height="6.56"/>
<g>
	<g>
		<g>
			<g>
				<g>
					<g>
						<rect x="28.47" y="28.19" class="st2" width="6.69" height="5.87"/>
					</g>
					<rect x="31.38" y="32.53" class="st3" width="0.67" height="1.09"/>
					<rect x="31.38" y="30.58" class="st3" width="0.67" height="1.09"/>
					<rect x="31.38" y="28.63" class="st3" width="0.67" height="1.09"/>
				</g>
			</g>
			<g>
				<g>
					<g>
						<rect x="28.47" y="34.06" class="st2" width="6.69" height="5.87"/>
					</g>
					<rect x="31.38" y="38.4" class="st3" width="0.67" height="1.09"/>
					<rect x="31.38" y="36.45" class="st3" width="0.67" height="1.09"/>
					<rect x="31.38" y="34.5" class="st3" width="0.67" height="1.09"/>
				</g>
			</g>
			<g>
				<g>
					<g>
						<rect x="28.47" y="39.93" class="st2" width="6.69" height="5.87"/>
					</g>
					<rect x="31.38" y="44.27" class="st3" width="0.67" height="1.09"/>
					<rect x="31.38" y="42.32" class="st3" width="0.67" height="1.09"/>
					<rect x="31.38" y="40.37" class="st3" width="0.67" height="1.09"/>
				</g>
			</g>
			<g>
				<g>
					<g>
						<rect x="28.47" y="45.8" class="st2" width="6.69" height="5.87"/>
					</g>
					<rect x="31.38" y="50.15" class="st3" width="0.67" height="1.09"/>
					<rect x="31.38" y="48.19" class="st3" width="0.67" height="1.09"/>
					<rect x="31.38" y="46.24" class="st3" width="0.67" height="1.09"/>
				</g>
			</g>
		</g>
	</g>
</g>
<g>
	<g>
		<g>
			<g>
				<g>
					<g>
						<rect x="66.11" y="28.19" class="st2" width="6.69" height="5.87"/>
					</g>
					<rect x="69.02" y="32.53" class="st3" width="0.67" height="1.09"/>
					<rect x="69.02" y="30.58" class="st3" width="0.67" height="1.09"/>
					<rect x="69.02" y="28.63" class="st3" width="0.67" height="1.09"/>
				</g>
			</g>
			<g>
				<g>
					<g>
						<rect x="66.11" y="34.06" class="st2" width="6.69" height="5.87"/>
					</g>
					<rect x="69.02" y="38.4" class="st3" width="0.67" height="1.09"/>
					<rect x="69.02" y="36.45" class="st3" width="0.67" height="1.09"/>
					<rect x="69.02" y="34.5" class="st3" width="0.67" height="1.09"/>
				</g>
			</g>
			<g>
				<g>
					<g>
						<rect x="66.11" y="39.93" class="st2" width="6.69" height="5.87"/>
					</g>
					<rect x="69.02" y="44.27" class="st3" width="0.67" height="1.09"/>
					<rect x="69.02" y="42.32" class="st3" width="0.67" height="1.09"/>
					<rect x="69.02" y="40.37" class="st3" width="0.67" height="1.09"/>
				</g>
			</g>
			<g>
				<g>
					<g>
						<rect x="66.11" y="45.8" class="st2" width="6.69" height="5.87"/>
					</g>
					<rect x="69.02" y="50.15" class="st3" width="0.67" height="1.09"/>
					<rect x="69.02" y="48.19" class="st3" width="0.67" height="1.09"/>
					<rect x="69.02" y="46.24" class="st3" width="0.67" height="1.09"/>
				</g>
			</g>
		</g>
	</g>
</g>
</svg>
