<?xml version="1.0" encoding="utf-8"?>
<!-- Generator: Adobe Illustrator 24.1.2, SVG Export Plug-In . SVG Version: 6.00 Build 0)  -->
<svg version="1.1" id="Layer_1" xmlns="http://www.w3.org/2000/svg" xmlns:xlink="http://www.w3.org/1999/xlink" x="0px" y="0px"
	 viewBox="0 0 100 100" style="enable-background:new 0 0 100 100;" xml:space="preserve">
<style type="text/css">
	.st0{fill:none;stroke:#000000;stroke-miterlimit:10;}
	.st1{fill:none;stroke:#000000;stroke-width:0.75;stroke-miterlimit:10;}
</style>
<path class="st0" d="M69.45,69.67h-46c-1.72,0-3.11-1.39-3.11-3.11V35.68c0-1.72,1.39-3.11,3.11-3.11h46c1.72,0,3.11,1.39,3.11,3.11
	v30.89C72.56,68.28,71.17,69.67,69.45,69.67z"/>
<g>
	<path class="st1" d="M71.65,33.48L61.08,44.05c-3.89,3.89-8.77,8.77-10.85,10.85c-2.08,2.08-5.48,2.08-7.56,0
		c-2.08-2.08-6.96-6.96-10.85-10.85L21.25,33.48"/>
</g>
<line class="st1" x1="38.89" y1="51.12" x2="21.25" y2="68.76"/>
<line class="st1" x1="71.65" y1="68.76" x2="54.01" y2="51.12"/>
</svg>
