<?xml version="1.0" encoding="utf-8"?>
<!-- Generator: Adobe Illustrator 24.1.2, SVG Export Plug-In . SVG Version: 6.00 Build 0)  -->
<svg version="1.1" id="Layer_1" xmlns="http://www.w3.org/2000/svg" xmlns:xlink="http://www.w3.org/1999/xlink" x="0px" y="0px"
	 viewBox="0 0 100 100" style="enable-background:new 0 0 100 100;" xml:space="preserve">
<style type="text/css">
	.st0{fill:none;stroke:#000000;stroke-width:0.5;stroke-miterlimit:10;}
	.st1{fill:none;stroke:#000000;stroke-width:0.8057;stroke-miterlimit:10;}
</style>
<circle class="st0" cx="47.65" cy="48.25" r="14.95"/>
<path class="st1" d="M80.45,50.9v-8.08l-8.92-1.33v0.19c-0.6-2.19-1.5-4.26-2.64-6.16L74,28.29l-5.76-5.66l-6.72,5.07
	c-2.56-1.73-5.46-2.98-8.58-3.66l-1.35-8.33h-8.08l-1.24,8.35c-2.97,0.66-5.75,1.85-8.21,3.47l-6.74-4.86l-5.71,5.71l5.02,6.77
	c-1.69,2.7-2.86,5.74-3.4,9l-8.54,1.38v8.08l8.92,1.33V54.2c0.68,2.76,1.81,5.35,3.33,7.66l-4.87,6.88l5.76,5.66l6.76-5.1
	c2.41,1.5,5.08,2.61,7.95,3.21l1.34,8.28h8.08l1.25-8.4c2.83-0.65,5.47-1.78,7.83-3.3l7.29,5.26l5.71-5.71l-5.37-7.24l-0.09,0.09
	c1.75-2.76,2.96-5.88,3.5-9.23L80.45,50.9z"/>
</svg>
