<?xml version="1.0" encoding="utf-8"?>
<!-- Generator: Adobe Illustrator 24.1.2, SVG Export Plug-In . SVG Version: 6.00 Build 0)  -->
<svg version="1.1" id="Layer_1" xmlns="http://www.w3.org/2000/svg" xmlns:xlink="http://www.w3.org/1999/xlink" x="0px" y="0px"
	 viewBox="0 0 100 100" style="enable-background:new 0 0 100 100;" xml:space="preserve">
<style type="text/css">
	.st0{fill:none;stroke:#000000;stroke-width:1.4714;stroke-miterlimit:10;}
	.st1{fill:none;stroke:#000000;stroke-width:1.143;stroke-miterlimit:10;}
	.st2{fill:none;stroke:#000000;stroke-width:0.7357;stroke-miterlimit:10;}
</style>
<polygon class="st0" points="83.72,40.1 48.68,54.56 16.05,39.03 49.27,29 "/>
<path class="st1" d="M64.02,48.23c3.95,6.05,3.61,9.87,3.61,9.87s-1.1-2.1-7.8-2.02c-6.71,0.07-11.02,3.74-11.02,3.74
	s-3.4-3.65-9.92-4.27c-6.52-0.62-8.78,1.21-8.78,1.21s-1.16-3.72,3.16-9.52"/>
<rect x="17.55" y="40" class="st2" width="0.99" height="5.19"/>
<ellipse class="st2" cx="18.04" cy="47.07" rx="1.16" ry="2.11"/>
<polygon class="st2" points="18.04,48.66 16.96,66.75 19.13,66.75 "/>
<ellipse class="st2" cx="48.27" cy="37.22" rx="2.62" ry="0.85"/>
</svg>
