<?xml version="1.0" encoding="utf-8"?>
<!-- Generator: Adobe Illustrator 24.1.2, SVG Export Plug-In . SVG Version: 6.00 Build 0)  -->
<svg version="1.1" id="iPhone" xmlns="http://www.w3.org/2000/svg" xmlns:xlink="http://www.w3.org/1999/xlink" x="0px" y="0px"
	 viewBox="0 0 100 100" style="enable-background:new 0 0 100 100;" xml:space="preserve">
<style type="text/css">
	.st0{fill:none;stroke:#000000;stroke-width:0.5509;stroke-miterlimit:10;}
	.st1{fill:none;stroke:#000000;stroke-width:0.2719;stroke-miterlimit:10;}
	.st2{fill:none;stroke:#000000;stroke-width:0.2175;stroke-miterlimit:10;}
	.st3{fill:none;stroke:#000000;stroke-width:0.253;stroke-miterlimit:10;}
	.st4{fill:none;stroke:#000000;stroke-width:0.1835;stroke-miterlimit:10;}
	.st5{fill:none;stroke:#000000;stroke-width:0.2381;stroke-miterlimit:10;}
	.st6{fill:none;stroke:#000000;stroke-width:0.1051;stroke-miterlimit:10;}
</style>
<g>
	<path class="st0" d="M32.82,90.14c-1.84,0-3.35-1.51-3.35-3.35v-73.6c0-1.84,1.51-3.35,3.35-3.35h34.91c1.84,0,3.35,1.51,3.35,3.35
		v73.6c0,1.84-1.51,3.35-3.35,3.35H32.82z"/>
</g>
<g>
	<path class="st1" d="M70.09,86.14c0,1.82-1.49,3.31-3.31,3.31H33.71c-1.82,0-3.31-1.49-3.31-3.31V14.02c0-1.82,1.49-3.31,3.31-3.31
		h33.07c1.82,0,3.31,1.49,3.31,3.31V86.14z"/>
</g>
<g>
	<path class="st2" d="M68.52,80.16c0,0.6-0.49,1.09-1.09,1.09H33.05c-0.6,0-1.09-0.49-1.09-1.09V19.6c0-0.6,0.49-1.09,1.09-1.09
		h34.38c0.6,0,1.09,0.49,1.09,1.09V80.16z"/>
</g>
<circle class="st3" cx="50.24" cy="85.4" r="3.81"/>
<circle class="st1" cx="50.24" cy="12.7" r="0.54"/>
<circle class="st1" cx="44.3" cy="15.67" r="0.68"/>
<path class="st1" d="M54.2,16.35h-7.91c-0.37,0-0.67-0.3-0.67-0.67v-0.02c0-0.37,0.3-0.67,0.67-0.67h7.91c0.37,0,0.67,0.3,0.67,0.67
	v0.02C54.87,16.05,54.56,16.35,54.2,16.35z"/>
<path class="st4" d="M29.46,22.99L29.46,22.99c-0.38,0-0.69-0.18-0.69-0.4V19c0-0.22,0.31-0.4,0.69-0.4h0"/>
<path class="st5" d="M29.46,32.39L29.46,32.39c-0.38,0-0.69-0.31-0.69-0.68v-6.04c0-0.37,0.31-0.68,0.69-0.68h0"/>
<path class="st5" d="M29.46,40.4L29.46,40.4c-0.38,0-0.69-0.31-0.69-0.68v-6.04c0-0.37,0.31-0.68,0.69-0.68h0"/>
<circle class="st6" cx="50.27" cy="85.4" r="3.4"/>
<rect x="0" y="-0.01" class="st2" width="100" height="100"/>
</svg>
